<svg xmlns="http://www.w3.org/2000/svg" width="60" height="60" viewBox="0 0 60 60"><defs><style>.a{fill:#28155a;}</style></defs><g transform="translate(-6.259 -6.259)"><path class="a" d="M50.3,22.869,39.853,12.42a4.27,4.27,0,0,1-.615.938l-25.88,25.88a4.27,4.27,0,0,1-.938.615L22.869,50.3A17.76,17.76,0,0,0,48,50.3L50.3,48a17.76,17.76,0,0,0,0-25.136Z" transform="translate(10.746 10.746)"/><path class="a" d="M22.534,48.414l25.88-25.88a4.27,4.27,0,0,1,.938-.615L38.9,11.47a17.76,17.76,0,0,0-25.136,0l-2.3,2.3a17.76,17.76,0,0,0,0,25.136L21.919,49.352A4.27,4.27,0,0,1,22.534,48.414ZM18.361,28.066a3.235,3.235,0,0,1-3.235-3.235,9.7,9.7,0,0,1,9.7-9.7,3.235,3.235,0,1,1,0,6.47A3.235,3.235,0,0,0,21.6,24.831,3.235,3.235,0,0,1,18.361,28.066Z" transform="translate(0 0)"/></g></svg>