<svg xmlns="http://www.w3.org/2000/svg" width="59.501" height="60" viewBox="0 0 59.501 60"><defs><style>.a{fill:#28155a;}</style></defs><g transform="translate(-5 -5)"><rect class="a" width="16" height="16" rx="1" transform="translate(5 5)"/><rect class="a" width="16" height="16" rx="1" transform="translate(5 27)"/><rect class="a" width="16" height="17" rx="1" transform="translate(5 48)"/><path class="a" d="M48.159,15H15.7a2.7,2.7,0,0,0,0,5.409H48.159a2.7,2.7,0,0,0,0-5.409Z" transform="translate(13.637 17.046)"/><path class="a" d="M48.159,23H15.7a2.7,2.7,0,0,0,0,5.409H48.159a2.7,2.7,0,0,0,0-5.409Z" transform="translate(13.637 30.682)"/><path class="a" d="M15.7,12.409H48.159a2.7,2.7,0,0,0,0-5.409H15.7a2.7,2.7,0,0,0,0,5.409Z" transform="translate(13.637 3.409)"/></g></svg>